<?xml version="1.0" encoding="iso-8859-1"?>
<!-- Uploaded to: SVG Repo, www.svgrepo.com, Generator: SVG Repo Mixer Tools -->
<svg height="800px" width="800px" version="1.1" id="Layer_1" xmlns="http://www.w3.org/2000/svg" xmlns:xlink="http://www.w3.org/1999/xlink" 
	 viewBox="0 0 496.159 496.159" xml:space="preserve">
<path style="fill:#D61E1E;" d="M248.083,0.003C111.071,0.003,0,111.063,0,248.085c0,137.001,111.07,248.07,248.083,248.07
	c137.006,0,248.076-111.069,248.076-248.07C496.159,111.062,385.089,0.003,248.083,0.003z"/>
<path style="fill:#F4EDED;" d="M248.082,39.002C132.609,39.002,39,132.602,39,248.084c0,115.463,93.609,209.072,209.082,209.072
	c115.468,0,209.077-93.609,209.077-209.072C457.159,132.602,363.55,39.002,248.082,39.002z"/>
<g>
	<path style="fill:#5B5147;" d="M179.432,91.348c0,46.698,1.154,184.421,68.648,184.421s68.648-137.724,68.648-184.421
		C316.728,72.504,179.432,69.89,179.432,91.348z"/>
	<path style="fill:#5B5147;" d="M247.171,388.153c-31.31,0-56.684,10.583-56.684,23.64c0,13.059,25.375,23.646,56.684,23.646
		c31.306,0,56.685-10.587,56.685-23.646C303.855,398.736,278.476,388.153,247.171,388.153z"/>
	<path style="fill:#5B5147;" d="M255.185,335.566c0-24.238,0.979-54.169,0.979-54.169h-17.779c0,0,0.973,32.699,0.973,54.169
		c0,21.466-8.049,80.062-8.049,80.062s5.253,5.442,16.163,5.442c10.914,0,15.763-5.442,15.763-5.442
		S255.185,359.803,255.185,335.566z"/>
	<polygon style="fill:#5B5147;" points="230.704,271.294 238.838,282.12 255.787,282.12 265.186,271.294 	"/>
</g>
<path style="fill:#F4EDED;" d="M249.496,102.854c-24.408-0.766-61.499,7.005-61.499,7.005c0.85,29.637,1.754,62.173,10.196,94.84
	c8.073,31.27,24.146,60.874,49.906,60.874c25.841,0,44.017-33.697,49.935-65.068c6.519-34.55,6.779-44.234,10.261-91.137
	C308.295,109.368,273.908,103.623,249.496,102.854z"/>
<path style="fill:#5B5147;" d="M249.401,125.121c-39.809,0-57.194-9.831-57.194-9.831c0.79,27.563,1.632,57.823,9.482,88.204
	c7.509,29.08,22.457,56.614,46.414,56.614c24.032,0,40.937-31.341,46.439-60.514c6.062-32.133,6.305-41.139,9.543-84.759
	C304.085,114.834,286.244,125.121,249.401,125.121z"/>
<path style="fill:#D61E1E;" d="M85.851,60.394c-9.086,7.86-17.596,16.37-25.457,25.456l349.914,349.914
	c9.086-7.861,17.596-16.37,25.456-25.456L85.851,60.394z"/>
</svg>