<?xml version="1.0" encoding="iso-8859-1"?>
<!-- Uploaded to: SVG Repo, www.svgrepo.com, Generator: SVG Repo Mixer Tools -->
<svg height="800px" width="800px" version="1.1" id="Layer_1" xmlns="http://www.w3.org/2000/svg" xmlns:xlink="http://www.w3.org/1999/xlink" 
	 viewBox="0 0 496.158 496.158" xml:space="preserve">
<path style="fill:#D61E1E;" d="M248.082,0.003C111.07,0.003,0,111.063,0,248.085c0,137.001,111.07,248.07,248.082,248.07
	c137.006,0,248.076-111.069,248.076-248.07C496.158,111.062,385.088,0.003,248.082,0.003z"/>
<path style="fill:#F4EDED;" d="M248.082,39.002C132.609,39.002,39,132.602,39,248.084c0,115.463,93.609,209.072,209.082,209.072
	c115.467,0,209.076-93.609,209.076-209.072C457.158,132.602,363.549,39.002,248.082,39.002z"/>
<ellipse style="fill:#5B5147;" cx="244.589" cy="135.829" rx="46.28" ry="45.785"/>
<circle style="fill:#F4EDED;" cx="281.349" cy="167.479" r="47.36"/>
<circle style="fill:#5B5147;" cx="284.429" cy="170.129" r="47.36"/>
<circle style="fill:#F4EDED;" cx="216.139" cy="173.009" r="48.778"/>
<g>
	<path style="fill:#5B5147;" d="M257.564,156.268c-11.133-24.529-40.045-35.388-64.575-24.255
		c-24.529,11.135-35.39,40.045-24.257,64.577c11.137,24.529,40.046,35.389,64.576,24.254
		C257.838,209.71,268.698,180.8,257.564,156.268z"/>
	<path style="fill:#5B5147;" d="M168.732,196.199c0,0,72.544,204.518,72.76,206.626c0.882,4.383,9.757,4.383,10.494,0.014
		c0.203-2.096,72.12-206.64,72.12-206.64L168.732,196.199L168.732,196.199z"/>
	<path style="fill:#5B5147;" d="M168.732,196.199c0,0,0.166,0.467,0.479,1.351l1.332-0.359h151.786l1.26,0.478
		c0.337-0.957,0.518-1.469,0.518-1.469H168.732V196.199z"/>
</g>
<path style="fill:#F4EDED;" d="M322.329,197.191H170.544l-1.332,0.359c0.354,0.999,0.897,2.532,1.61,4.542h151.213
	c0.68-1.935,1.203-3.424,1.554-4.424L322.329,197.191z"/>
<path style="fill:#D61E1E;" d="M85.85,60.394c-9.086,7.86-17.596,16.37-25.456,25.456l349.914,349.914
	c9.086-7.861,17.596-16.37,25.456-25.456L85.85,60.394z"/>
</svg>